<?xml version="1.0" encoding="utf-8"?>
<!-- Generator: Adobe Illustrator 22.0.0, SVG Export Plug-In . SVG Version: 6.00 Build 0)  -->
<svg version="1.1" id="Layer_1" xmlns="http://www.w3.org/2000/svg" xmlns:xlink="http://www.w3.org/1999/xlink" x="0px" y="0px"
	 viewBox="0 0 128 128" style="enable-background:new 0 0 128 128;" xml:space="preserve">
<g id="social">
	<g id="twitter">
		<path d="M40.1,116.1c48.2,0,74.6-40.1,74.6-75c0-1.2,0-2.4,0-3.2c5.2-3.6,9.6-8.4,13.2-13.6c-4.8,2-10,3.6-15.2,4
			c5.6-3.2,9.6-8.4,11.6-14.4c-5.2,3.2-10.8,5.2-16.9,6.4C97.5,9.8,81.1,9,70.6,19C63.8,25.4,61,35,63,44.3
			C41.7,43.1,22.5,33,9.2,16.6c-6.8,12-3.6,27.3,8,35.3c-4,0-8.4-1.2-12-3.2v0.4c0,12.4,8.8,23.3,21.3,25.7c-4,1.2-8,1.2-12,0.4
			c3.6,10.8,13.2,18,24.4,18.4c-9.2,7.2-20.9,11.2-32.5,11.2c-2,0-4,0-6.4-0.4C12,112.1,26.1,116.1,40.1,116.1"/>
	</g>
	<g id="facebook">
		<path d="M74,128V69.6h19.6l2.8-22.8H74V32.4c0-6.4,2-11.2,11.2-11.2h12V0.8C95.2,0.8,88,0,79.6,0C62.4,0,50.4,10.8,50.4,30v16.8
			H30.8v22.8h19.6V128H74z"/>
	</g>
	<g id="vkontakte">
		<path d="M126.2,92.7c0-0.4-0.4-0.8-0.4-0.8c-2.4-4-6.4-8.8-12.4-14.8l0,0l0,0l0,0l0,0c-2.8-2.8-4.8-4.4-5.2-5.6
			c-1.2-1.6-1.6-3.6-0.8-5.2c0.4-1.2,2.4-4.4,6-8.8c2-2.4,3.2-4.4,4.4-5.6c7.6-10.4,11.2-16.8,10-19.6l-0.4-0.8
			c-0.4-0.4-0.8-0.8-2-1.2c-1.2-0.4-2.4-0.4-4.4,0h-18.8c-0.4,0-0.8,0-1.2,0c-0.4,0-0.8,0.4-0.8,0.4h-0.4l-0.4,0.4
			c-0.4,0-0.4,0.4-0.8,0.8c-0.4,0.4-0.4,0.8-0.8,1.2c-2,5.2-4.4,10.4-7.2,14.8c-1.6,2.8-3.2,5.2-4.4,7.2c-1.2,2-2.4,3.6-3.6,4.4
			c-0.8,0.8-1.6,1.6-2.4,2.4c-0.8,0.4-1.2,0.8-1.6,0.8s-0.8,0-1.2-0.4c-0.8-0.4-1.2-0.8-1.6-1.6S75,59.1,75,58.3
			c0-1.2-0.4-2-0.4-2.8s0-2,0-3.2s0-2.4,0-2.8c0-1.6,0-3.6,0-5.6s0-3.6,0-4.8s0-2.4,0-3.6s0-2.4-0.4-3.2c0-0.8-0.4-1.6-0.8-2
			c-0.4-0.8-0.8-1.2-1.2-1.6c-0.4-0.4-1.2-0.8-2.4-0.8c-2.4-0.4-5.2-0.8-8.8-0.8c-8.4,0-13.2,0.4-15.6,1.6c-0.8,0.4-1.6,1.2-2.4,2
			c-0.8,0.8-0.8,1.6-0.4,1.6c2.8,0.4,4.4,1.2,5.6,2.8l0.4,0.8c0.4,0.4,0.8,1.6,0.8,3.2c0.4,1.6,0.4,3.2,0.4,4.8c0.4,3.2,0.4,6,0,8.4
			s-0.4,4-0.8,5.2c-0.4,1.2-0.4,2.4-0.8,3.2c-0.4,0.8-0.8,1.2-0.8,1.6L47,62.7c-0.4,0.4-1.2,0.4-1.6,0.4c-0.8,0-1.2-0.4-2.4-0.8
			c-0.8-0.8-2-1.6-2.8-2.4c-0.8-1.2-2-2.8-3.2-4.4c-1.2-2-2.4-4.4-3.6-6.8l-1.2-2c-0.8-1.2-1.6-3.2-2.8-5.6c-1.2-2.4-2-4.8-3.2-6.8
			c-0.4-0.8-0.8-1.6-1.6-2l-0.4-0.4c-0.4,0-0.4-0.4-1.2-0.4c-0.4-0.4-0.8-0.4-1.6-0.4h-17c-2,0-3.2,0.4-3.6,1.2l-0.4,0.4
			c0,0.4-0.4,0.4-0.4,1.2c0,0.4,0,1.2,0.4,1.6C3.2,42,6,48,9.2,53.6s6,10.4,8,14c2.4,3.6,4.8,6.8,7.2,10s4,5.2,4.8,6s1.2,1.6,2,2
			l1.6,1.6c1.2,1.2,2.8,2.4,4.8,4s4.4,2.8,6.8,4.4c2.4,1.6,5.6,2.8,8.8,3.6c3.2,0.8,6.4,1.2,9.6,1.2h7.6c1.6,0,2.8-0.8,3.6-1.6
			l0.4-0.4c0-0.4,0.4-0.8,0.4-1.2c0-0.4,0.4-1.2,0.4-2c0-2,0-3.6,0.4-5.2s0.8-2.8,1.2-3.6c0.4-0.8,0.8-1.6,1.6-2
			c0.4-0.4,0.8-0.8,1.2-0.8c0.4,0,0.4,0,0.4-0.4c1.2-0.4,2.4,0,3.6,1.2c1.6,1.2,2.8,2.4,4,4s2.8,3.2,4.4,5.2s3.2,3.2,4.8,4.4
			l1.2,0.8c0.8,0.4,2,1.2,3.6,1.6s2.8,0.4,3.6,0.4l16.8-0.4c1.6,0,3.2-0.4,4-0.8s1.6-1.2,1.6-2s0-1.6,0-2.4
			C126.6,93.5,126.6,92.7,126.2,92.7z"/>
	</g>
	<g id="instagram">
		<path d="M127.2,37.3c-0.4-6.8-1.2-11.6-2.8-15.6c-1.6-4.4-4-8-7.6-11.2c-3.2-3.2-7.2-5.6-11.2-7.2S96.8,0.4,90,0.4
			C83.2,0,80.8,0,63.6,0S44,0,37.2,0.4S25.6,2,21.6,3.2c-4.4,1.6-8,4-11.2,7.6C7.2,14,4.8,18.1,3.2,22.1s-2.8,8.8-2.8,15.6
			C0,44.5,0,46.9,0,64.2s0,19.7,0.4,26.5s1.6,11.6,2.8,15.6c1.6,4.4,4,8,7.6,11.2c3.2,3.2,7.2,5.6,11.2,7.2s8.8,2.8,15.6,2.8
			c6.8,0.4,9.2,0.4,26.4,0.4s19.6,0,26.4-0.4s11.6-1.2,15.6-2.8c8.8-3.2,15.6-10,18.8-18.9c1.6-4,2.8-8.8,2.8-15.6
			c0.4-6.8,0.4-9.2,0.4-26.5C127.6,46.5,127.6,44.1,127.2,37.3z M115.6,89.9c-0.4,6.4-1.2,9.6-2.4,12c-2,5.6-6.4,10-12,12
			c-2.4,0.8-5.6,2-12,2.4c-6.8,0.4-8.8,0.4-26,0.4s-19.2,0-26-0.4c-6.4-0.4-9.6-1.2-12-2.4c-2.8-1.2-5.2-2.8-7.2-4.8
			s-3.6-4.4-4.8-7.2c-0.8-2.4-2-5.6-2.4-12c-0.4-6.8-0.4-8.8-0.4-26.1s0-19.3,0.4-26.1c0.4-6.4,1.2-9.6,2.4-12
			c1.2-2.8,2.8-5.2,4.8-7.2s4.4-3.6,7.2-4.8c2.4-0.8,5.6-2,12-2.4c6.8-0.4,8.8-0.4,26-0.4s19.2,0,26,0.4c6.4,0.4,9.6,1.2,12,2.4
			c2.8,1.2,5.2,2.8,7.2,4.8s3.6,4.4,4.8,7.2c0.8,2.4,2,5.6,2.4,12c0.4,6.8,0.4,8.8,0.4,26.1S116,83.5,115.6,89.9z"/>
		<path d="M63.6,31.3c-18,0-32.8,14.8-32.8,32.9s14.8,32.9,32.8,32.9s32.8-14.8,32.8-32.9S81.6,31.3,63.6,31.3z M63.6,85.5
			c-11.6,0-21.2-9.6-21.2-21.3S52,42.9,63.6,42.9s21.2,9.6,21.2,21.3S75.6,85.5,63.6,85.5z"/>
		<path d="M105.6,29.7c0,4.4-3.6,7.6-7.6,7.6c-4.4,0-7.6-3.6-7.6-7.6c0-4.4,3.6-7.6,7.6-7.6C102,21.7,105.6,25.3,105.6,29.7z"/>
	</g>
	<g id="odnoklassniki">
		<path d="M25.4,68.5c-3.2,6.4,0.4,9.6,8.8,14.7c7.2,4.4,17.1,6,23.5,6.8c-2.8,2.4,9.2-9.2-25.1,24.3c-7.2,7.2,4.4,18.3,11.6,11.6
			L64,106.8c7.6,7.2,14.7,14.3,19.9,19.1c7.2,6.8,19.1-4.4,12-11.6c-0.4-0.4-26.7-25.5-25.1-24.3c6.4-0.8,16.3-2.4,23.1-6.8l0,0
			c8.4-5.2,12-8.4,8.8-14.7c-2-3.6-7.2-6.8-13.9-1.6c0,0-9.6,7.2-24.7,7.2s-24.7-7.2-24.7-7.2C32.5,61.8,27.3,64.9,25.4,68.5
			L25.4,68.5z"/>
		<path d="M64,64.5c18.3,0,33.5-14.3,33.5-32.3S82.3,0,64,0S30.5,14.3,30.5,32.3C30.5,50.6,45.7,64.5,64,64.5z M64,16.7
			c9.2,0,16.3,7.2,16.3,15.9s-7.5,16-16.3,16s-16.3-7.2-16.3-15.9S54.8,16.7,64,16.7L64,16.7z"/>
	</g>
	<g id="youtube">
		<path d="M125.4,33.2c-1.5-5.5-5.8-9.8-11.3-11.3c-10-2.7-50.1-2.7-50.1-2.7s-40.1,0-50.1,2.6c-5.4,1.5-9.8,5.9-11.3,11.4
			C0,43.2,0,64,0,64s0,20.9,2.6,30.8c1.5,5.5,5.8,9.8,11.3,11.3c10.1,2.7,50.1,2.7,50.1,2.7s40.1,0,50.1-2.6
			c5.5-1.5,9.8-5.8,11.3-11.3c2.6-10,2.6-30.8,2.6-30.8S128.1,43.2,125.4,33.2z M51.2,83.2V44.8L84.6,64L51.2,83.2z"/>
	</g>
</g>
<g id="utilities">
	<g id="cross">
		<path d="M127.5,118.9c-0.2-0.4-0.4-0.8-0.6-1.1c-0.2-0.4-0.5-0.7-0.8-1L73.3,64l52.8-52.8c0.3-0.3,0.6-0.6,0.8-1
			c0.2-0.4,0.4-0.7,0.6-1.1c0.2-0.4,0.3-0.8,0.4-1.2C128,7.4,128,7,128,6.6s0-0.9-0.1-1.3c-0.1-0.4-0.2-0.8-0.4-1.2
			c-0.2-0.4-0.4-0.8-0.6-1.1c-0.2-0.4-0.5-0.7-0.8-1l0,0c-0.3-0.3-0.6-0.6-1-0.8s-0.7-0.4-1.1-0.6s-0.8-0.3-1.2-0.4
			c-0.5-0.2-1-0.2-1.4-0.2s-0.9,0-1.3,0.1s-0.8,0.2-1.2,0.4c-0.4,0.2-0.8,0.4-1.1,0.6c-0.4,0.2-0.7,0.5-1,0.8L64,54.7L11.2,1.9
			c-0.3-0.3-0.6-0.6-1-0.8C9.9,0.9,9.5,0.7,9.1,0.5C8.7,0.3,8.3,0.2,7.9,0.1C7.4,0,7,0,6.6,0S5.7,0,5.3,0.1C4.9,0.2,4.5,0.3,4.1,0.5
			S3.3,0.9,2.9,1.1s-0.7,0.5-1,0.8l0,0c-0.3,0.3-0.6,0.6-0.8,1C0.9,3.3,0.7,3.7,0.5,4.1S0.2,4.9,0.1,5.3C0,5.7,0,6.2,0,6.6
			s0,0.8,0.1,1.3c0.1,0.4,0.2,0.8,0.4,1.2s0.4,0.8,0.6,1.1c0.2,0.4,0.5,0.7,0.8,1L54.7,64L1.9,116.8c-0.3,0.3-0.6,0.6-0.8,1
			s-0.4,0.7-0.6,1.1s-0.3,0.8-0.4,1.2C0,120.6,0,121,0,121.4s0,0.9,0.1,1.3s0.2,0.8,0.4,1.2c0.2,0.4,0.4,0.8,0.6,1.1
			c0.2,0.4,0.5,0.7,0.8,1l0,0c0.3,0.3,0.6,0.6,1,0.8c0.4,0.2,0.7,0.4,1.1,0.6s0.8,0.3,1.2,0.4c0.4,0.1,0.9,0.1,1.3,0.1
			s0.9,0,1.3-0.1c0.4-0.1,0.8-0.2,1.2-0.4c0.4-0.2,0.8-0.4,1.1-0.6c0.4-0.2,0.7-0.5,1-0.8L64,73.3l52.8,52.8c0.3,0.3,0.6,0.6,1,0.8
			c0.4,0.2,0.7,0.4,1.1,0.6s0.8,0.3,1.2,0.4c0.4,0.1,0.9,0.1,1.3,0.1s0.9,0,1.3-0.1s0.8-0.2,1.2-0.4c0.4-0.2,0.8-0.4,1.1-0.6
			c0.4-0.2,0.7-0.5,1-0.8l0,0c0.3-0.3,0.6-0.6,0.8-1c0.2-0.4,0.4-0.7,0.6-1.1s0.3-0.8,0.4-1.2c0.1-0.4,0.1-0.9,0.1-1.3
			s0-0.9-0.1-1.3C127.8,119.7,127.7,119.3,127.5,118.9z"/>
	</g>
	<g id="chevron-left">
		<path d="M97.5,13.6L46.9,64.2l50.6,50.6c3.2,3.2,3.2,8,0,10.8c-3.2,3.2-8,3.2-10.8,0L30.5,69.4c-3.2-3.2-3.2-8,0-10.8L86.7,2.4
			c3.2-3.2,8-3.2,10.8,0C100.7,5.6,100.7,10.4,97.5,13.6L97.5,13.6z"/>
	</g>
	<g id="chevron-right">
		<path d="M30.5,114.4l50.6-50.6L30.5,13.2c-3.2-3.2-3.2-8,0-10.8c3.2-3.2,8-3.2,10.8,0l56.2,56.2c3.2,3.2,3.2,8,0,10.8l-56.2,56.2
			c-3.2,3.2-8,3.2-10.8,0C27.3,122.4,27.3,117.6,30.5,114.4L30.5,114.4z"/>
	</g>
	<g id="chevron-down">
		<path d="M13.6,30.7l50.6,50.2l50.6-50.2c3.2-3.2,8-3.2,10.8,0c3.2,3.2,3.2,8,0,10.8L69.4,97.3c-3.2,3.2-8,3.2-10.8,0L2.4,41.5
			c-3.2-3.2-3.2-8,0-10.8C5.6,27.5,10.4,27.5,13.6,30.7L13.6,30.7z"/>
	</g>
	<g id="chevron-up">
		<path d="M114.4,97.3L63.8,47.1L13.2,97.3c-3.2,3.2-8,3.2-10.8,0c-3.2-3.2-3.2-8,0-10.8l56.2-55.8c3.2-3.2,8-3.2,10.8,0l56.2,55.8
			c3.2,3.2,3.2,8,0,10.8C122.4,100.5,117.6,100.5,114.4,97.3L114.4,97.3z"/>
	</g>
	<g id="chevron-thin-left">
		<path d="M90.4,1.2c0.8-0.8,2-1.2,3.2-1.2s2.4,0.4,3.2,1.2c1.6,1.6,1.6,4.8,0,6.4L40.8,64l56,56.4c1.6,1.6,1.6,4.8,0,6.4
			c-1.6,1.6-4.8,1.6-6.4,0L31.2,67.2c-1.6-1.6-1.6-4.8,0-6.4L90.4,1.2L90.4,1.2z"/>
	</g>
	<g id="chevron-thin-right">
		<path d="M37.6,126.8c-0.8,0.8-2,1.2-3.2,1.2s-2.4-0.4-3.2-1.2c-1.6-1.6-1.6-4.8,0-6.4l56-56.4l-56-56.4c-1.6-1.6-1.6-4.8,0-6.4
			c1.6-1.6,4.8-1.6,6.4,0l59.2,59.6c1.6,1.6,1.6,4.8,0,6.4L37.6,126.8L37.6,126.8z"/>
	</g>
	<g id="chevron-thin-down">
		<path d="M1.2,37.6c-0.8-0.8-1.2-2-1.2-3.2s0.4-2.4,1.2-3.2c1.6-1.6,4.8-1.6,6.4,0l56.4,56l56.4-56c1.6-1.6,4.8-1.6,6.4,0
			c1.6,1.6,1.6,4.8,0,6.4L67.2,96.8c-1.6,1.6-4.8,1.6-6.4,0L1.2,37.6L1.2,37.6z"/>
	</g>
	<g id="chevron-thin-up">
		<path d="M126.8,90.4c0.8,0.8,1.2,2,1.2,3.2s-0.4,2.4-1.2,3.2c-1.6,1.6-4.8,1.6-6.4,0L64,40.8l-56.4,56c-1.6,1.6-4.8,1.6-6.4,0
			s-1.6-4.8,0-6.4l59.6-59.2c1.6-1.6,4.8-1.6,6.4,0L126.8,90.4L126.8,90.4z"/>
	</g>
	<g id="arrow-left">
		<path d="M128,80.8V47.6c0-3.2-2.8-4.8-5.6-4.8H74.7V14.3c0-3.2-2.8-4-5.2-2.4L1.8,60.8c-2.4,1.6-2.4,4.8,0,6.4l68.1,48.9
			c2.4,1.6,4.8,0.8,4.8-2.4V84.8h47.7C125.2,85.2,128,84,128,80.8L128,80.8z"/>
	</g>
	<g id="arrow-right">
		<path d="M0,46.8V80c0,3.2,2.8,4.8,5.6,4.8h47.7v28.8c0,3.2,2.8,4,5.2,2.4l67.7-48.9c2.4-1.6,2.4-4.8,0-6.4L58.1,11.9
			c-2.4-1.6-4.8-0.8-4.8,2.4v28.8H5.6C2.8,42.4,0,43.6,0,46.8L0,46.8z"/>
	</g>
	<g id="arrow-down">
		<path d="M81.2,0H47.6c-3.2,0-4.8,2.8-4.8,5.6v47.7H13.9c-3.2,0-4,2.8-2.4,5.2l49.3,67.7c1.6,2.4,4.8,2.4,6.4,0l49.3-68.1
			c1.6-2.4,0.8-4.8-2.4-4.8H85.2V5.6C85.6,2.8,84.4,0,81.2,0L81.2,0z"/>
	</g>
	<g id="arrow-up">
		<path d="M47,128h33.7c3.2,0,4.8-2.8,4.8-5.6V74.7h28.8c3.2,0,4-2.8,2.4-5.2L67,1.8c-1.6-2.4-4.8-2.4-6.4,0L11.3,69.9
			c-1.6,2.4-0.8,4.8,2.4,4.8h28.8v47.7C42.6,125.2,43.8,128,47,128L47,128z"/>
	</g>
	<g id="view-list">
		<path d="M121.6,92.8V112H6.4V92.8H121.6 M128,86.4H0v32h128V86.4L128,86.4z"/>
		<path d="M121.6,16v19.2H6.4V16H121.6 M128,9.6H0v32h128V9.6L128,9.6z"/>
		<path d="M121.6,54.4v19.2H6.4V54.4H121.6 M128,48H0v32h128V48L128,48z"/>
	</g>
	<g id="play">
		<path d="M88.3,60.3L49.9,38.4l-6.4-3.7v58.6l6.4-3.7l38.4-21.8l6.4-3.7L88.3,60.3z"/>
		<path d="M64,0C28.7,0,0,28.7,0,64s28.7,64,64,64s64-28.7,64-64S99.3,0,64,0z M64,123C31.3,123,5,96.7,5,64S31.3,5,64,5
			s59,26.3,59,59S96.7,123,64,123z"/>
	</g>
	<g id="error">
		<path d="M64,0c17.1,0,33.2,6.7,45.3,18.7C121.3,30.8,128,46.9,128,64s-6.7,33.2-18.7,45.3S81.1,128,64,128s-33.2-6.7-45.3-18.7
			C6.7,97.2,0,81.1,0,64s6.7-33.2,18.7-45.3C30.8,6.7,46.9,0,64,0z M64,123c15.7,0,30.6-6.1,41.7-17.3c23-23,23-60.5,0-83.5
			C94.6,11.1,79.7,5,64,5s-30.6,6.1-41.7,17.3c-23,23-23,60.5,0,83.5C33.4,116.9,48.3,123,64,123z"/>
		<path d="M92.2,35.8c-1.4-1.4-3.7-1.4-5.1,0L64,58.9L40.9,35.8c-1.4-1.4-3.7-1.4-5.1,0s-1.4,3.7,0,5.1L58.9,64L35.8,87.1
			c-1.4,1.4-1.4,3.7,0,5.1c0.7,0.7,1.6,1.1,2.6,1.1c0.9,0,1.9-0.4,2.6-1.1l23-23.1l23,23.1c0.7,0.7,1.6,1.1,2.6,1.1
			c0.9,0,1.9-0.4,2.6-1.1c1.4-1.4,1.4-3.7,0-5.1L69.1,64l23.1-23.1C93.6,39.5,93.6,37.2,92.2,35.8"/>
	</g>
	<g id="question" transform="translate(0.5 0.5)">
		<g>
			<path d="M63.5,127.5c-35.3,0-64-28.7-64-64s28.7-64,64-64s64,28.7,64,64S98.8,127.5,63.5,127.5z M63.5,4.5c-32.5,0-59,26.5-59,59
				s26.5,59,59,59s59-26.5,59-59S96,4.5,63.5,4.5z"/>
		</g>
		<g transform="translate(7 2)">
			<path d="M39.7,38c0.9-0.8,1.9-1.5,3-2.3s2.2-1.3,3.5-1.9c1.2-0.5,2.6-0.9,4-1.2s3-0.5,4.7-0.5c2.3,0,4.4,0.3,6.3,1
				c1.9,0.6,3.5,1.5,4.9,2.7c1.3,1.2,2.4,2.6,3.1,4.3s1.1,3.5,1.1,5.6c0,2-0.3,3.7-0.9,5.2s-1.3,2.7-2.2,3.8s-1.8,2-2.9,2.8
				c-1,0.8-2,1.5-2.9,2.2s-1.7,1.4-2.4,2.1c-0.7,0.7-1.1,1.4-1.2,2.3l-0.9,5.8h-6.7l-0.7-6.5c0-0.1,0-0.2,0-0.3s0-0.2,0-0.3
				c0-1.2,0.3-2.2,0.9-3c0.6-0.9,1.3-1.7,2.2-2.4s1.8-1.5,2.8-2.2s1.9-1.5,2.8-2.3c0.9-0.8,1.6-1.8,2.2-2.8c0.6-1.1,0.9-2.3,0.9-3.7
				c0-1-0.2-1.8-0.5-2.6s-0.9-1.4-1.5-1.9s-1.4-1-2.3-1.2s-2-0.6-3-0.6c-1.5,0-2.8,0.2-3.8,0.5s-1.9,0.7-2.7,1.1s-1.3,0.8-1.8,1.1
				s-1,0.5-1.3,0.5c-1,0-1.6-0.4-2.1-1.2L39.7,38z M47.2,84.8c0-0.8,0.2-1.6,0.5-2.3c0.3-0.7,0.7-1.4,1.3-1.9c0.5-0.5,1.2-1,1.9-1.3
				s1.5-0.5,2.4-0.5c0.8,0,1.6,0.2,2.3,0.5s1.4,0.7,1.9,1.3c0.5,0.5,1,1.2,1.3,1.9c0.3,0.7,0.5,1.5,0.5,2.3s-0.2,1.6-0.5,2.4
				c-0.3,0.7-0.7,1.4-1.3,1.9c-0.5,0.5-1.2,0.9-1.9,1.2c-0.7,0.3-1.5,0.5-2.3,0.5s-1.6-0.2-2.4-0.5c-0.7-0.3-1.4-0.7-1.9-1.2
				s-1-1.2-1.3-1.9C47.3,86.4,47.2,85.6,47.2,84.8z"/>
		</g>
	</g>
	<g id="search">
		<path d="M0,49.8c0,27.4,22.3,49.8,49.8,49.8c11.9,0,22.8-4.2,31.4-11.2l39.7,39.7l7.2-7.2L88.3,81.2c7-8.6,11.2-19.5,11.2-31.4
			C99.5,22.3,77.2,0,49.8,0S0,22.3,0,49.8z M10,49.8C10,27.7,27.7,10,49.8,10s39.8,17.8,39.8,39.8S71.8,89.6,49.8,89.6
			S10,71.8,10,49.8z"/>
	</g>
	<g id="order">
		<path d="M26.7,47.7l-3.2-3.8l-5.8,4.8l8.2,9.7l13.6-12.1l-5-5.6L26.7,47.7z"/>
		<path d="M45.2,54.3h29v-7.5h-29C45.2,46.8,45.2,54.3,45.2,54.3z"/>
		<path d="M26.7,69.2l-3.2-3.8l-5.8,4.8L26,80l13.6-12.1l-5-5.6L26.7,69.2z"/>
		<path d="M45.2,75.8h29v-7.5h-29C45.2,68.3,45.2,75.8,45.2,75.8z"/>
		<path d="M26.7,90.8L23.6,87l-5.8,4.8l8.2,9.7l13.6-12.1l-5-5.6L26.7,90.8z"/>
		<path d="M45.2,97.4h29v-7.5h-29C45.2,89.9,45.2,97.4,45.2,97.4z"/>
		<path d="M68.1,7.6V0h7.5v7.6h16.6V128H0V7.6h16.6V0h7.5v7.6h9.7V0h7.5v7.6H51V0h7.5v7.6H68.1z M75.6,15.1v7.6h-7.5v-7.6h-9.7v7.6
			H51v-7.6h-9.7v7.6h-7.5v-7.6h-9.7v7.6h-7.5v-7.6H7.5v105.4h77.2V15.1H75.6z"/>
		<path d="M101.1,6.6v103.2l11.2,18.2h4.4l11.2-18.2V6.6H101.1z M120.5,107.7l-5.9,9.6l-5.9-9.6v-4.4h11.9L120.5,107.7L120.5,107.7z
			 M120.5,95.8h-11.9V34.6h11.9V95.8z M120.5,27.1h-11.9v-13h11.9V27.1z"/>
	</g>
	<g id="view-grid">
		<path d="M0,41.6h38.4v-32H0V41.6z M6.4,16H32v19.2H6.4V16z"/>
		<path d="M89.6,41.6H128v-32H89.6V41.6z M96,16h25.6v19.2H96V16z"/>
		<path d="M89.6,118.4H128v-32H89.6V118.4z M96,92.8h25.6V112H96V92.8z"/>
		<path d="M0,118.4h38.4v-32H0V118.4z M6.4,92.8H32V112H6.4V92.8z"/>
		<path d="M44.8,80h38.4V48H44.8V80z M51.2,54.4h25.6v19.2H51.2V54.4z"/>
		<path d="M0,80h38.4V48H0V80z M6.4,54.4H32v19.2H6.4V54.4z"/>
		<path d="M44.8,41.6h38.4v-32H44.8V41.6z M51.2,16h25.6v19.2H51.2V16z"/>
		<path d="M89.6,80H128V48H89.6V80z M96,54.4h25.6v19.2H96V54.4z"/>
		<path d="M44.8,118.4h38.4v-32H44.8V118.4z M51.2,92.8h25.6V112H51.2V92.8z"/>
	</g>
	<g id="filter">
		<path d="M33,23.6c-1.2,8-8.1,14.2-16.4,14.2C7.4,37.8,0,30.4,0,21.2S7.4,4.6,16.6,4.6c8.3,0,15.2,6.2,16.4,14.2h92.6
			c1.3,0,2.4,1.1,2.4,2.4s-1.1,2.4-2.4,2.4C125.6,23.6,33,23.6,33,23.6z M28.4,21.2c0-6.5-5.3-11.9-11.9-11.9S4.7,14.7,4.7,21.2
			S10,33.1,16.6,33.1S28.4,27.7,28.4,21.2z"/>
		<path d="M2.4,105.1H95c1.2-7.7,8.1-13.7,16.4-13.7c9.1,0,16.6,7.2,16.6,16s-7.4,16-16.6,16c-8.3,0-15.2-6-16.4-13.7H2.4
			c-1.3,0-2.4-1-2.4-2.3S1.1,105.1,2.4,105.1z M99.6,108c0,6.5,5.3,11.9,11.9,11.9c6.5,0,11.9-5.3,11.9-11.9s-5.3-11.9-11.9-11.9
			S99.6,101.4,99.6,108z"/>
		<path d="M81.5,62.2h44.2c1.3,0,2.4,1.1,2.4,2.4c0,1.3-1.1,2.4-2.4,2.4H81.3c-1.4,8.1-8.4,14.2-16.8,14.2C56,81.2,49,75,47.7,67
			H2.4C1.1,67,0,65.9,0,64.6c0-1.3,1.1-2.4,2.4-2.4h45.1c0.9-8.5,8.2-15.2,17-15.2C73.3,47,80.5,53.7,81.5,62.2z M52.1,64.1
			c0,6.8,5.5,12.3,12.3,12.3s12.3-5.5,12.3-12.3s-5.5-12.3-12.3-12.3C57.7,51.8,52.1,57.3,52.1,64.1z"/>
	</g>
	<g id="enter">
		<path d="M45.9,127c-2.2,0-4.2-0.8-5.8-2.4l-32-32c-1.5-1.5-2.4-3.6-2.4-5.8c0-2.2,0.8-4.2,2.4-5.8l32-32c1.5-1.5,3.6-2.4,5.8-2.4
			l0,0c2.2,0,4.2,0.8,5.8,2.4c3.2,3.2,3.2,8.3,0,11.5l-18.1,18h53.1c13,0,19.3-6.3,19.3-19.3V9.1c0-4.5,3.7-8.1,8.1-8.1
			c4.5,0,8.1,3.7,8.1,8.1v50.3c0,21.9-13.6,35.6-35.6,35.6h-53l18.1,18.2c3.2,3.2,3.2,8.3,0,11.5C50.1,126.2,48.1,127,45.9,127z"/>
	</g>
</g>
</svg>
