<?xml version="1.0" encoding="utf-8"?>
<!-- Generator: Adobe Illustrator 22.0.0, SVG Export Plug-In . SVG Version: 6.00 Build 0)  -->
<svg version="1.1" id="Layer_1" xmlns="http://www.w3.org/2000/svg" xmlns:xlink="http://www.w3.org/1999/xlink" x="0px" y="0px"
	 viewBox="0 0 135 41" style="enable-background:new 0 0 135 41;" xml:space="preserve">
<style type="text/css">
	.st0{fill:#FFFFFF;}
</style>
<g id="logo-rgsu">
	<path class="st0" d="M39.5,8h0.9V5.6h1.4c1.1,0,1.9-0.8,1.9-2s-0.8-2-1.9-2h-2.3L39.5,8L39.5,8z M40.3,4.9V2.4h1.3
		c0.7,0,1.2,0.5,1.2,1.2c0,0.8-0.5,1.3-1.2,1.3H40.3L40.3,4.9z M44.4,4.8c0,1.9,1.4,3.4,3.2,3.4s3.2-1.5,3.2-3.4
		c0-1.8-1.4-3.3-3.2-3.3C45.8,1.5,44.4,2.9,44.4,4.8L44.4,4.8z M45.3,4.8c0-1.4,1-2.5,2.3-2.5s2.3,1.1,2.3,2.5s-1,2.5-2.3,2.5
		S45.3,6.2,45.3,4.8L45.3,4.8z M51.6,4.8c0,1.9,1.3,3.4,3.2,3.4c1.1,0,1.9-0.5,2.4-1l-0.5-0.6c-0.5,0.5-1.2,0.8-1.9,0.8
		c-1.4,0-2.3-1.2-2.3-2.5c0-1.4,0.9-2.5,2.3-2.5c0.6,0,1.3,0.3,1.8,0.7L57,2.3c-0.6-0.6-1.5-0.8-2.3-0.8C52.9,1.5,51.6,2.9,51.6,4.8
		L51.6,4.8z M57.7,4.8c0,1.9,1.3,3.4,3.2,3.4c1.1,0,1.9-0.5,2.4-1l-0.5-0.6c-0.5,0.5-1.2,0.8-1.9,0.8c-1.4,0-2.3-1.2-2.3-2.5
		c0-1.4,0.9-2.5,2.3-2.5c0.6,0,1.3,0.3,1.8,0.7l0.4-0.7c-0.6-0.6-1.5-0.8-2.3-0.8C59,1.5,57.7,2.9,57.7,4.8L57.7,4.8z M64.4,8h0.9
		L68,3.9C68.2,3.5,68.5,3,68.5,3l0,0c0,0-0.1,0.6-0.1,0.9v4.2h0.9V1.6h-0.9l-2.7,4.2c-0.2,0.3-0.5,0.9-0.5,0.9l0,0
		c0,0,0.1-0.6,0.1-0.9V1.6h-0.9V8L64.4,8z M73.5,1.3c0.7,0,1.3-0.4,1.3-1.2V0h-0.7v0.1c0,0.4-0.3,0.6-0.6,0.6
		c-0.3,0-0.6-0.2-0.6-0.6V0h-0.7v0.1C72.2,0.9,72.8,1.3,73.5,1.3L73.5,1.3z M71,8h0.9l2.8-4.2c0.2-0.4,0.5-0.9,0.5-0.9l0,0
		c0,0-0.1,0.6-0.1,0.9V8H76V1.6h-0.9l-2.7,4.2c-0.2,0.3-0.5,0.9-0.5,0.9l0,0c0,0,0.1-0.6,0.1-0.9V1.6h-1V8L71,8z M77.2,4.8
		c0,1.9,1.3,3.4,3.2,3.4c1.1,0,1.9-0.5,2.4-1l-0.5-0.6c-0.5,0.5-1.2,0.8-1.9,0.8c-1.4,0-2.3-1.2-2.3-2.5c0-1.4,0.9-2.5,2.3-2.5
		c0.6,0,1.3,0.3,1.8,0.7l0.4-0.7c-0.6-0.6-1.5-0.8-2.3-0.8C78.5,1.5,77.2,2.9,77.2,4.8L77.2,4.8z M83.9,8h0.9V5.1h0.9L87.3,8h1
		l-1.9-3.4l0,0l1.8-3h-1l-1.6,2.7h-0.9V1.6h-0.9L83.9,8L83.9,8z M89.3,8h0.9L93,3.8c0.2-0.4,0.5-0.9,0.5-0.9l0,0
		c0,0-0.1,0.6-0.1,0.9V8h0.9V1.6h-0.9l-2.7,4.2c-0.2,0.3-0.5,0.9-0.5,0.9l0,0c0,0,0.1-0.6,0.1-0.9V1.6h-0.9L89.3,8L89.3,8z
		 M98.4,1.3c0.7,0,1.3-0.4,1.3-1.2V0H99v0.1c0,0.4-0.3,0.6-0.6,0.6c-0.3,0-0.6-0.2-0.6-0.6V0h-0.7v0.1C97.1,0.9,97.7,1.3,98.4,1.3
		L98.4,1.3z M95.9,8h0.9l2.8-4.2c0.2-0.4,0.5-0.9,0.5-0.9l0,0c0,0-0.1,0.6-0.1,0.9V8h0.9V1.6H100l-2.7,4.2c-0.2,0.3-0.5,0.9-0.5,0.9
		l0,0c0,0,0.1-0.6,0.1-0.9V1.6H96L95.9,8L95.9,8z M39.5,18.9h0.9v-5.6h2.5v-0.8h-3.4V18.9L39.5,18.9z M43.2,15.7
		c0,1.9,1.4,3.4,3.2,3.4s3.2-1.5,3.2-3.4c0-1.8-1.4-3.3-3.2-3.3C44.6,12.4,43.2,13.8,43.2,15.7L43.2,15.7z M44.1,15.7
		c0-1.4,1-2.5,2.3-2.5s2.3,1.1,2.3,2.5s-1,2.5-2.3,2.5S44.1,17.1,44.1,15.7L44.1,15.7z M50.4,15.7c0,1.9,1.3,3.4,3.2,3.4
		c1.1,0,1.9-0.5,2.4-1l-0.5-0.6c-0.5,0.5-1.2,0.8-1.9,0.8c-1.4,0-2.3-1.2-2.3-2.5c0-1.4,0.9-2.5,2.3-2.5c0.6,0,1.3,0.3,1.8,0.7
		l0.4-0.7c-0.6-0.6-1.5-0.8-2.3-0.8C51.7,12.4,50.4,13.8,50.4,15.7L50.4,15.7z M56.9,18.6c0.3,0.2,0.7,0.4,1.1,0.4
		c0.8,0,1.2-0.6,1.4-1.3l2-5.2h-0.9l-1.1,3.2c-0.1,0.4-0.3,0.8-0.3,0.8l0,0c0,0-0.2-0.4-0.4-0.8l-1.5-3.2h-1l2.4,5
		c-0.2,0.4-0.3,0.7-0.7,0.7c-0.3,0-0.6-0.2-0.7-0.3L56.9,18.6L56.9,18.6z M62.7,18.1c0.7-1.2,0.9-2.9,0.9-4.3v-0.6h1.9v4.9H62.7
		L62.7,18.1z M61.1,18.1v2.1h0.8v-1.3h4.3v1.3H67v-2.1h-0.7v-5.6h-3.6v1.3c0,1.4-0.1,3.1-1,4.3H61.1L61.1,18.1z M67.5,18.9h0.9
		l0.6-1.8h2.3l0.6,1.8h0.9l-2.2-6.4h-0.9L67.5,18.9L67.5,18.9z M69.3,16.3l0.7-2c0.1-0.3,0.2-0.9,0.2-0.9l0,0c0,0,0.1,0.6,0.2,0.9
		l0.7,2H69.3L69.3,16.3z M73.8,18.9h0.9v-2.4h1.4c1.1,0,1.9-0.8,1.9-2s-0.8-2-1.9-2h-2.3V18.9L73.8,18.9z M74.7,15.8v-2.5H76
		c0.7,0,1.2,0.5,1.2,1.2c0,0.8-0.5,1.3-1.2,1.3H74.7L74.7,15.8z M78.7,15.7c0,1.9,1.3,3.4,3.2,3.4c1.1,0,1.9-0.5,2.4-1l-0.5-0.6
		c-0.5,0.5-1.2,0.8-1.9,0.8c-1.4,0-2.3-1.2-2.3-2.5c0-1.4,0.9-2.5,2.3-2.5c0.6,0,1.3,0.3,1.8,0.7l0.4-0.7c-0.6-0.6-1.5-0.8-2.3-0.8
		C80.1,12.4,78.7,13.8,78.7,15.7L78.7,15.7z M86.9,18.9h0.9v-5.6h2.1v-0.8h-5.1v0.8h2.1V18.9L86.9,18.9z M90.8,18.9H93
		c1.1,0,2-0.6,2-1.8c0-0.7-0.4-1.4-1-1.6l0,0c0.5-0.3,0.8-0.8,0.8-1.4c0-1-0.7-1.6-1.8-1.6h-2.2V18.9L90.8,18.9z M91.7,15.2v-1.9H93
		c0.6,0,0.9,0.4,0.9,0.9c0,0.6-0.4,1-0.9,1H91.7L91.7,15.2z M91.7,18.1v-2.2h1.4c0.6,0,1.1,0.4,1.1,1.1c0,0.7-0.4,1.1-1.1,1.1H91.7
		L91.7,18.1z M96.3,18.9h3.8v-0.8h-2.9V16h2.2v-0.8h-2.2v-2h2.7v-0.8h-3.6V18.9L96.3,18.9z M101.2,18.9h0.9v-2.8h3.2v2.8h0.9v-6.4
		h-0.9v2.8h-3.2v-2.8h-0.9V18.9L101.2,18.9z M107.8,18.9h0.9v-2.8h3.2v2.8h0.9v-6.4h-0.9v2.8h-3.2v-2.8h-0.9V18.9L107.8,18.9z
		 M119.3,18.9h0.9v-6.4h-0.9V18.9L119.3,18.9z M114.4,18.9h2.2c1.1,0,1.8-0.8,1.8-2c0-1.3-0.8-2-1.9-2h-1.3v-2.4h-0.9v6.4H114.4z
		 M115.3,18.1v-2.4h1.2c0.7,0,1.1,0.5,1.1,1.2s-0.4,1.2-1.1,1.2L115.3,18.1L115.3,18.1z M124.3,12.2c0.7,0,1.3-0.4,1.3-1.2v-0.1
		h-0.7V11c0,0.4-0.3,0.6-0.6,0.6c-0.3,0-0.6-0.2-0.6-0.6v-0.1H123V11C123,11.8,123.6,12.2,124.3,12.2L124.3,12.2z M121.8,18.9h0.9
		l2.8-4.2c0.2-0.4,0.5-0.9,0.5-0.9l0,0c0,0-0.1,0.6-0.1,0.9v4.2h0.9v-6.4h-0.9l-2.7,4.2c-0.2,0.3-0.5,0.9-0.5,0.9l0,0
		c0,0,0.1-0.6,0.1-0.9v-4.2h-0.9v6.4C121.9,18.9,121.8,18.9,121.8,18.9z M39.1,26.6c0,1.9,1.3,3.4,3.2,3.4c1.1,0,1.9-0.5,2.4-1
		l-0.5-0.6c-0.5,0.5-1.2,0.8-1.9,0.8c-1.4,0-2.3-1.2-2.3-2.5c0-1.4,0.9-2.5,2.3-2.5c0.6,0,1.3,0.3,1.8,0.7l0.4-0.7
		c-0.6-0.6-1.5-0.8-2.3-0.8C40.4,23.3,39.1,24.7,39.1,26.6L39.1,26.6z M45.2,26.6c0,1.9,1.4,3.4,3.2,3.4s3.2-1.5,3.2-3.4
		c0-1.8-1.4-3.3-3.2-3.3C46.6,23.3,45.2,24.7,45.2,26.6L45.2,26.6z M46.1,26.6c0-1.4,1-2.5,2.3-2.5s2.3,1.1,2.3,2.5s-1,2.5-2.3,2.5
		S46.1,28,46.1,26.6L46.1,26.6z M52.8,29.8h4.7v1.3h0.8V29h-0.7v-5.6h-0.9V29h-3v-5.6h-0.9L52.8,29.8L52.8,29.8z M59.5,29.8h0.9
		l2.8-4.2c0.2-0.4,0.5-0.9,0.5-0.9l0,0c0,0-0.1,0.6-0.1,0.9v4.2h0.9v-6.4h-0.9l-2.7,4.2c-0.2,0.3-0.5,0.9-0.5,0.9l0,0
		c0,0,0.1-0.6,0.1-0.9v-4.2h-0.9L59.5,29.8L59.5,29.8z M65.4,29.8h0.9l0.6-1.8h2.3l0.6,1.8h0.9l-2.2-6.4h-0.9L65.4,29.8L65.4,29.8z
		 M67.1,27.2l0.7-2c0.1-0.3,0.2-0.9,0.2-0.9l0,0c0,0,0.1,0.6,0.2,0.9l0.7,2H67.1L67.1,27.2z M71,29.1v0.8c1.7-0.1,2.2-1.9,2.2-5
		v-0.7h1.9v5.6H76v-6.4h-3.6v1.5C72.4,27.5,72,28.9,71,29.1L71,29.1z M77.6,29.8h2.2c1.1,0,1.9-0.8,1.9-2c0-1.3-0.8-2-1.9-2h-1.3
		v-2.4h-0.9L77.6,29.8L77.6,29.8z M78.5,29v-2.4h1.2c0.7,0,1.1,0.5,1.1,1.2S80.4,29,79.7,29H78.5L78.5,29z M82.8,29.8h0.9V27h3.2
		v2.8h0.9v-6.4h-0.9v2.8h-3.2v-2.8h-0.9V29.8L82.8,29.8z M94.3,29.8h0.9v-6.4h-0.9V29.8L94.3,29.8z M89.4,29.8h2.2
		c1.1,0,1.8-0.8,1.8-2c0-1.3-0.8-2-1.9-2h-1.3v-2.4h-0.9v6.4H89.4z M90.2,29v-2.4h1.2c0.7,0,1.1,0.5,1.1,1.2S92.1,29,91.4,29H90.2
		L90.2,29z M99.3,23.1c0.7,0,1.3-0.4,1.3-1.2v-0.1h-0.7v0.1c0,0.4-0.3,0.6-0.6,0.6c-0.3,0-0.6-0.2-0.6-0.6v-0.1H98v0.1
		C98,22.7,98.6,23.1,99.3,23.1L99.3,23.1z M96.8,29.8h0.9l2.8-4.2c0.2-0.4,0.5-0.9,0.5-0.9l0,0c0,0-0.1,0.6-0.1,0.9v4.2h0.9v-6.4
		h-0.9l-2.7,4.2c-0.2,0.3-0.5,0.9-0.5,0.9l0,0c0,0,0.1-0.6,0.1-0.9v-4.2h-0.9v6.4C96.9,29.8,96.8,29.8,96.8,29.8z M39.7,40.4
		c0.3,0.2,0.7,0.4,1.1,0.4c0.8,0,1.2-0.6,1.4-1.3l2-5.2h-0.9l-1.1,3.2c-0.1,0.4-0.3,0.8-0.3,0.8l0,0c0,0-0.2-0.4-0.4-0.8L40,34.3h-1
		l2.4,5c-0.2,0.4-0.3,0.7-0.7,0.7c-0.3,0-0.6-0.2-0.7-0.3L39.7,40.4L39.7,40.4z M45.2,40.7H46v-2.8h3.2v2.8h0.9v-6.4h-0.9v2.8H46
		v-2.8h-0.9v6.4H45.2z M51.7,40.7h0.9l2.8-4.2c0.2-0.4,0.5-0.9,0.5-0.9l0,0c0,0-0.1,0.6-0.1,0.9v4.2h0.9v-6.4h-0.9l-2.7,4.2
		c-0.2,0.3-0.5,0.9-0.5,0.9l0,0c0,0,0.1-0.6,0.1-0.9v-4.2h-0.9L51.7,40.7L51.7,40.7z M58.3,40.7h2.2c1.1,0,2-0.6,2-1.8
		c0-0.7-0.4-1.4-1-1.6l0,0c0.5-0.3,0.8-0.8,0.8-1.4c0-1-0.7-1.6-1.8-1.6h-2.2V40.7L58.3,40.7z M59.2,37v-1.9h1.3
		c0.6,0,0.9,0.4,0.9,0.9c0,0.6-0.4,1-0.9,1H59.2L59.2,37z M59.2,39.9v-2.2h1.4c0.6,0,1.1,0.4,1.1,1.1c0,0.7-0.4,1.1-1.1,1.1
		L59.2,39.9L59.2,39.9z M63.8,40.7h3.8v-0.8h-2.9v-2.1h2.2V37h-2.2v-2h2.7v-0.8h-3.6L63.8,40.7L63.8,40.7z M68.7,40.7h0.9v-2.4H71
		c1.1,0,1.9-0.8,1.9-2s-0.8-2-1.9-2h-2.3V40.7L68.7,40.7z M69.6,37.6v-2.5h1.3c0.7,0,1.2,0.5,1.2,1.2c0,0.8-0.5,1.3-1.2,1.3H69.6
		L69.6,37.6z M73.7,37.5c0,1.9,1.3,3.4,3.2,3.4c1.1,0,1.9-0.5,2.4-1l-0.5-0.6c-0.5,0.5-1.2,0.8-1.9,0.8c-1.4,0-2.3-1.2-2.3-2.5
		c0-1.4,0.9-2.5,2.3-2.5c0.6,0,1.3,0.3,1.8,0.7l0.4-0.7c-0.6-0.6-1.5-0.8-2.3-0.8C75,34.2,73.7,35.6,73.7,37.5L73.7,37.5z
		 M80.3,40.7h0.9l2.8-4.2c0.2-0.4,0.5-0.9,0.5-0.9l0,0c0,0-0.1,0.6-0.1,0.9v4.2h0.9v-6.4h-0.9l-2.7,4.2c-0.2,0.3-0.5,0.9-0.5,0.9
		l0,0c0,0,0.1-0.6,0.1-0.9v-4.2h-0.9v6.4H80.3z M88.4,40.7h0.9v-5.6h2.1v-0.8h-5.1v0.8h2.1V40.7L88.4,40.7z M92.3,40.7h3.8v-0.8
		h-2.9v-2.1h2.2V37h-2.2v-2h2.7v-0.8h-3.6V40.7L92.3,40.7z M98.7,40.7h0.9v-5.6h2.1v-0.8h-5.1v0.8h2.1V40.7L98.7,40.7z"/>
	<path class="st0" d="M28.9,20.3c-0.3-1-0.7-1.9-1.3-2.8c-0.9-1.4-1.9-2.4-3.1-3.6l-0.2-0.2c1.6-1.4,2.6-3.5,2.6-5.8
		c0-4.3-3.3-7.7-7.4-7.7c-1.5,0-2.8,0.4-3.9,1.1c0,0.1-0.1,0.1-0.1,0.1c0,0.1-0.1,0.1-0.1,0.1C14.5,2.1,13.7,3,13.1,4
		c-1-0.5-2-0.8-3.2-0.8c-4.1,0-7.4,3.5-7.4,7.7c0,1.6,0.5,3.1,1.3,4.3c-0.7,0.8-1.4,1.5-2,2.4c-0.5,0.9-1,1.8-1.3,2.8
		c-0.6,2.2-0.5,4.7-0.4,7c0,0.5,0,1.1,0,1.6c0,1,0,2.1,0,3.1c0,1,0,2,0,3c0,0.5,0,4.1,0,5.8h2c0-1.6,0-5.4,0-5.8c0-1,0-2,0-3
		s0-2.1,0-3.1c0-0.6,0-1.1,0-1.7c0-1.2-0.1-2.5,0-3.7c0-0.8,0.1-1.7,0.4-2.5c0.3-0.9,0.6-1.6,1.1-2.3c0.4-0.7,1.1-1.4,1.5-1.9
		c1,0.8,2.1,1.3,3.3,1.6c-0.7,1-1.1,2.3-1.1,3.6c0,1.9,0.8,3.6,2.1,4.7c-0.4,0.5-0.9,1.1-1.3,1.7C8,28.7,7.8,29,7.7,29.2
		c-0.5,0.9-0.9,1.9-1.1,2.9c-0.2,0.9-0.2,1.7-0.2,2.7l0.1,6.3h2.1c0-2.1-0.1-4.4-0.1-6.4c0.1-1.4,0.2-2.9,1.1-4.6
		c0.3-0.6,0.7-1.1,1.1-1.6c0.2-0.3,0.4-0.5,0.6-0.7c0.6,0.2,1.3,0.3,2,0.3c0.8,0,1.6-0.2,2.3-0.5c0.6,0.6,1.1,1.2,1.6,2
		c1.1,1.9,1.3,3.5,1.3,5c0,2.1-0.1,4.3-0.1,6.4h2.1v-6.4c0-0.3,0-0.6,0-0.8c0-0.9-0.1-1.6-0.3-2.5c-0.1-0.1-0.1-0.1-0.1-0.2
		c-0.2-0.7-0.5-1.4-0.9-2.1v-0.1c-0.1-0.2-0.3-0.4-0.4-0.6c-0.5-0.8-1-1.4-1.6-2c1.2-1.2,1.9-2.7,1.9-4.5c0-2.6-1.6-4.9-3.9-5.7
		c0.4-0.4,0.7-0.9,1-1.4c1,0.5,2,0.8,3.2,0.8c1.1,0,2.2-0.3,3.1-0.7c0.2,0.2,0.3,0.3,0.5,0.5c1,1.1,2,2,2.8,3.3
		c0.5,0.7,0.9,1.5,1.1,2.3c0.3,0.8,0.4,1.6,0.4,2.5c0.1,1.2,0,2.5,0,3.7c0,0.6,0,1.1,0,1.7c0,1,0,2.1,0,3.1c0,1,0,2,0,3
		c0,0.6,0,5.1,0,5.6v0.4h2v-0.3c0-0.5,0-5,0-5.6c0-1,0-2,0-3s0-2.1,0-3.1c0-0.5,0-1.1,0-1.6C29.4,25,29.6,22.5,28.9,20.3z
		 M17.2,21.9c0,2.2-1.8,4-3.9,4c-2.2,0-3.9-1.8-3.9-4s1.8-4,3.9-4C15.5,17.9,17.2,19.7,17.2,21.9z M11.8,16.1
		c-0.2,0.1-0.4,0.1-0.6,0.2c-0.4,0.1-0.8,0.2-1.3,0.2C7,16.5,4.6,14,4.6,11C4.7,7.8,7,5.4,10,5.4c2.9,0,5.3,2.5,5.3,5.5
		C15.3,13.3,13.9,15.3,11.8,16.1z M22.5,12.5c-0.9,0.6-1.9,0.9-3,0.9c-0.2,0-0.4,0-0.6,0c-0.6-0.1-1.2-0.3-1.6-0.6
		c0.1-0.7,0.2-1.3,0.2-2c0-2.3-1-4.3-2.5-5.7c0.4-0.8,1-1.4,1.7-1.9c0.8-0.5,1.8-0.8,2.8-0.8c2.9,0,5.3,2.5,5.3,5.5
		C24.8,9.8,23.9,11.5,22.5,12.5z"/>
</g>
</svg>
